<mxfile host="app.diagrams.net" modified="2023-12-07T01:54:52.645Z" agent="Mozilla/5.0 (Windows NT 10.0; Win64; x64) AppleWebKit/537.36 (KHTML, like Gecko) Chrome/119.0.0.0 Safari/537.36" etag="sbcq3he52X1fEhRrFzO4" version="22.1.5" type="github">
  <diagram name="Page-1" id="GfUmj1pkPzhHIZp9-YQ2">
    <mxGraphModel dx="1050" dy="542" grid="1" gridSize="10" guides="1" tooltips="1" connect="1" arrows="1" fold="1" page="1" pageScale="1" pageWidth="850" pageHeight="1100" background="#3DFF84" math="0" shadow="0">
      <root>
        <mxCell id="0" />
        <mxCell id="1" parent="0" />
        <mxCell id="jf5PPdOuDlF9HIFyWGPY-3" value="" style="edgeStyle=orthogonalEdgeStyle;rounded=0;orthogonalLoop=1;jettySize=auto;html=1;labelBackgroundColor=none;strokeColor=#FF6392;fontColor=default;" edge="1" parent="1" source="jf5PPdOuDlF9HIFyWGPY-1" target="jf5PPdOuDlF9HIFyWGPY-2">
          <mxGeometry relative="1" as="geometry" />
        </mxCell>
        <object placeholders="1" c4Name="External person name" c4Type="Person" c4Description="Description of external person." label="&lt;font style=&quot;font-size: 16px&quot;&gt;&lt;b&gt;%c4Name%&lt;/b&gt;&lt;/font&gt;&lt;div&gt;[%c4Type%]&lt;/div&gt;&lt;br&gt;&lt;div&gt;&lt;font style=&quot;font-size: 11px&quot;&gt;&lt;font color=&quot;#cccccc&quot;&gt;%c4Description%&lt;/font&gt;&lt;/div&gt;" tags="fssd" id="jf5PPdOuDlF9HIFyWGPY-1">
          <mxCell style="html=1;fontSize=11;dashed=0;whiteSpace=wrap;fillColor=#FFE45E;strokeColor=#FF6392;fontColor=#5AA9E6;shape=mxgraph.c4.person2;align=center;metaEdit=1;points=[[0.5,0,0],[1,0.5,0],[1,0.75,0],[0.75,1,0],[0.5,1,0],[0.25,1,0],[0,0.75,0],[0,0.5,0]];resizable=0;labelBackgroundColor=none;" vertex="1" parent="1">
            <mxGeometry x="100" y="60" width="200" height="180" as="geometry" />
          </mxCell>
        </object>
        <mxCell id="jf5PPdOuDlF9HIFyWGPY-5" value="" style="edgeStyle=orthogonalEdgeStyle;rounded=0;orthogonalLoop=1;jettySize=auto;html=1;labelBackgroundColor=none;strokeColor=#FF6392;fontColor=default;" edge="1" parent="1" source="jf5PPdOuDlF9HIFyWGPY-2" target="jf5PPdOuDlF9HIFyWGPY-4">
          <mxGeometry relative="1" as="geometry" />
        </mxCell>
        <UserObject label="" tags="fdsfdsdf" id="jf5PPdOuDlF9HIFyWGPY-2">
          <mxCell style="ellipse;whiteSpace=wrap;html=1;fontSize=11;fillColor=#FFE45E;strokeColor=#FF6392;fontColor=#5AA9E6;dashed=0;labelBackgroundColor=none;" vertex="1" parent="1">
            <mxGeometry x="440" y="110" width="80" height="80" as="geometry" />
          </mxCell>
        </UserObject>
        <mxCell id="jf5PPdOuDlF9HIFyWGPY-7" value="" style="edgeStyle=orthogonalEdgeStyle;rounded=0;orthogonalLoop=1;jettySize=auto;html=1;labelBackgroundColor=none;strokeColor=#FF6392;fontColor=default;" edge="1" parent="1" source="jf5PPdOuDlF9HIFyWGPY-4" target="jf5PPdOuDlF9HIFyWGPY-6">
          <mxGeometry relative="1" as="geometry" />
        </mxCell>
        <mxCell id="jf5PPdOuDlF9HIFyWGPY-9" value="" style="edgeStyle=orthogonalEdgeStyle;rounded=0;orthogonalLoop=1;jettySize=auto;html=1;labelBackgroundColor=none;strokeColor=#FF6392;fontColor=default;" edge="1" parent="1" source="jf5PPdOuDlF9HIFyWGPY-4" target="jf5PPdOuDlF9HIFyWGPY-8">
          <mxGeometry relative="1" as="geometry" />
        </mxCell>
        <UserObject label="" tags="fssd" id="jf5PPdOuDlF9HIFyWGPY-4">
          <mxCell style="shape=hexagon;perimeter=hexagonPerimeter2;whiteSpace=wrap;html=1;fixedSize=1;fontSize=11;fillColor=#FFE45E;strokeColor=#FF6392;fontColor=#5AA9E6;dashed=0;labelBackgroundColor=none;" vertex="1" parent="1">
            <mxGeometry x="580" y="110" width="120" height="80" as="geometry" />
          </mxCell>
        </UserObject>
        <UserObject label="" tags="fssd" id="jf5PPdOuDlF9HIFyWGPY-6">
          <mxCell style="shape=parallelogram;perimeter=parallelogramPerimeter;whiteSpace=wrap;html=1;fixedSize=1;fontSize=11;fillColor=#FFE45E;strokeColor=#FF6392;fontColor=#5AA9E6;dashed=0;labelBackgroundColor=none;" vertex="1" parent="1">
            <mxGeometry x="780" y="120" width="120" height="60" as="geometry" />
          </mxCell>
        </UserObject>
        <UserObject label="" tags="fssd" id="jf5PPdOuDlF9HIFyWGPY-8">
          <mxCell style="whiteSpace=wrap;html=1;fontSize=11;fillColor=#FFE45E;strokeColor=#FF6392;fontColor=#5AA9E6;dashed=0;labelBackgroundColor=none;" vertex="1" parent="1">
            <mxGeometry x="890" y="30" width="120" height="60" as="geometry" />
          </mxCell>
        </UserObject>
        <mxCell id="jf5PPdOuDlF9HIFyWGPY-11" value="" style="image;sketch=0;aspect=fixed;html=1;points=[];align=center;fontSize=12;image=img/lib/mscae/Databricks.svg;labelBackgroundColor=none;fillColor=#FFE45E;strokeColor=#FF6392;fontColor=#5AA9E6;" vertex="1" parent="1">
          <mxGeometry x="860" y="177.33" width="312.5" height="300" as="geometry" />
        </mxCell>
        <mxCell id="jf5PPdOuDlF9HIFyWGPY-13" value="" style="image;sketch=0;aspect=fixed;html=1;points=[];align=center;fontSize=12;image=img/lib/mscae/Batch_Accounts.svg;labelBackgroundColor=none;fillColor=#FFE45E;strokeColor=#FF6392;fontColor=#5AA9E6;" vertex="1" parent="1">
          <mxGeometry x="310" y="260" width="50" height="48" as="geometry" />
        </mxCell>
        <mxCell id="jf5PPdOuDlF9HIFyWGPY-14" value="" style="image;sketch=0;aspect=fixed;html=1;points=[];align=center;fontSize=12;image=img/lib/mscae/Cloud_Services_Classic.svg;labelBackgroundColor=none;fillColor=#FFE45E;strokeColor=#FF6392;fontColor=#5AA9E6;" vertex="1" parent="1">
          <mxGeometry x="175" y="266" width="50" height="42" as="geometry" />
        </mxCell>
        <mxCell id="jf5PPdOuDlF9HIFyWGPY-15" value="" style="image;sketch=0;aspect=fixed;html=1;points=[];align=center;fontSize=12;image=img/lib/mscae/Batch_Accounts.svg;labelBackgroundColor=none;fillColor=#FFE45E;strokeColor=#FF6392;fontColor=#5AA9E6;" vertex="1" parent="1">
          <mxGeometry x="190" y="400" width="50" height="48" as="geometry" />
        </mxCell>
        <mxCell id="jf5PPdOuDlF9HIFyWGPY-16" value="" style="image;sketch=0;aspect=fixed;html=1;points=[];align=center;fontSize=12;image=img/lib/mscae/Citrix_Virtual_Desktops_Essentials.svg;labelBackgroundColor=none;fillColor=#FFE45E;strokeColor=#FF6392;fontColor=#5AA9E6;" vertex="1" parent="1">
          <mxGeometry x="120" y="321.95" width="50" height="50" as="geometry" />
        </mxCell>
        <mxCell id="jf5PPdOuDlF9HIFyWGPY-17" value="" style="image;sketch=0;aspect=fixed;html=1;points=[];align=center;fontSize=12;image=img/lib/mscae/Person.svg;labelBackgroundColor=none;fillColor=#FFE45E;strokeColor=#FF6392;fontColor=#5AA9E6;" vertex="1" parent="1">
          <mxGeometry x="240" y="290" width="37" height="50" as="geometry" />
        </mxCell>
        <mxCell id="jf5PPdOuDlF9HIFyWGPY-20" value="" style="verticalLabelPosition=bottom;html=1;verticalAlign=top;strokeWidth=1;align=center;outlineConnect=0;dashed=0;outlineConnect=0;shape=mxgraph.aws3d.ami;aspect=fixed;fillColor=#FFE45E;strokeColor=#FF6392;labelBackgroundColor=none;fontColor=#5AA9E6;" vertex="1" parent="1">
          <mxGeometry x="348.84000000000003" y="359" width="199.33" height="130" as="geometry" />
        </mxCell>
        <mxCell id="jf5PPdOuDlF9HIFyWGPY-21" value="" style="verticalLabelPosition=bottom;html=1;verticalAlign=top;strokeWidth=1;align=center;outlineConnect=0;dashed=0;outlineConnect=0;shape=mxgraph.aws3d.ami;aspect=fixed;fillColor=#FFE45E;strokeColor=#FF6392;labelBackgroundColor=none;fontColor=#5AA9E6;" vertex="1" parent="1">
          <mxGeometry x="348.84000000000003" y="248.04" width="190" height="123.91" as="geometry" />
        </mxCell>
        <mxCell id="jf5PPdOuDlF9HIFyWGPY-22" value="" style="verticalLabelPosition=bottom;html=1;verticalAlign=top;strokeWidth=1;align=center;outlineConnect=0;dashed=0;outlineConnect=0;shape=mxgraph.aws3d.ami;aspect=fixed;fillColor=#FFE45E;strokeColor=#FF6392;rotation=3;labelBackgroundColor=none;fontColor=#5AA9E6;" vertex="1" parent="1">
          <mxGeometry x="380" y="144.57" width="177" height="115.43" as="geometry" />
        </mxCell>
        <mxCell id="jf5PPdOuDlF9HIFyWGPY-23" value="" style="verticalLabelPosition=bottom;html=1;verticalAlign=top;strokeWidth=1;align=center;outlineConnect=0;dashed=0;outlineConnect=0;shape=mxgraph.aws3d.arrowNW;fillColor=#FFE45E;aspect=fixed;labelBackgroundColor=none;strokeColor=#FF6392;fontColor=#5AA9E6;" vertex="1" parent="1">
          <mxGeometry x="425.76" y="177.32999999999998" width="45.5" height="26" as="geometry" />
        </mxCell>
        <object placeholders="1" c4Name="Person name" c4Type="Person" c4Description="Description of person." label="&lt;font style=&quot;font-size: 16px&quot;&gt;&lt;b&gt;%c4Name%&lt;/b&gt;&lt;/font&gt;&lt;div&gt;[%c4Type%]&lt;/div&gt;&lt;br&gt;&lt;div&gt;&lt;font style=&quot;font-size: 11px&quot;&gt;&lt;font color=&quot;#cccccc&quot;&gt;%c4Description%&lt;/font&gt;&lt;/div&gt;" id="jf5PPdOuDlF9HIFyWGPY-24">
          <mxCell style="html=1;fontSize=11;dashed=0;whiteSpace=wrap;fillColor=#FFE45E;strokeColor=#FF6392;fontColor=#5AA9E6;shape=mxgraph.c4.person2;align=center;metaEdit=1;points=[[0.5,0,0],[1,0.5,0],[1,0.75,0],[0.75,1,0],[0.5,1,0],[0.25,1,0],[0,0.75,0],[0,0.5,0]];resizable=0;labelBackgroundColor=none;" vertex="1" parent="1">
            <mxGeometry x="600" y="240" width="200" height="180" as="geometry" />
          </mxCell>
        </object>
        <mxCell id="jf5PPdOuDlF9HIFyWGPY-25" value="" style="verticalLabelPosition=bottom;html=1;verticalAlign=top;strokeWidth=1;align=center;outlineConnect=0;dashed=0;outlineConnect=0;shape=mxgraph.aws3d.arrowhead2;fillColor=#FFE45E;aspect=fixed;labelBackgroundColor=none;strokeColor=#FF6392;fontColor=#5AA9E6;" vertex="1" parent="1">
          <mxGeometry x="480" y="203.32999999999998" width="19" height="11" as="geometry" />
        </mxCell>
        <mxCell id="jf5PPdOuDlF9HIFyWGPY-26" value="" style="verticalLabelPosition=bottom;html=1;verticalAlign=top;strokeWidth=1;align=center;outlineConnect=0;dashed=0;outlineConnect=0;shape=mxgraph.aws3d.arrowhead2;fillColor=#FFE45E;aspect=fixed;labelBackgroundColor=none;strokeColor=#FF6392;fontColor=#5AA9E6;" vertex="1" parent="1">
          <mxGeometry x="499" y="185" width="19" height="11" as="geometry" />
        </mxCell>
        <object placeholders="1" c4Type="Container name" c4Container="Container" c4Technology="e.g. Apache Kafka, etc." c4Description="Description of message bus type container role/responsibility." label="&lt;font style=&quot;font-size: 16px&quot;&gt;&lt;b&gt;%c4Type%&lt;/b&gt;&lt;/font&gt;&lt;div&gt;[%c4Container%:&amp;nbsp;%c4Technology%]&lt;/div&gt;&lt;br&gt;&lt;div&gt;&lt;font style=&quot;font-size: 11px&quot;&gt;&lt;font color=&quot;#E6E6E6&quot;&gt;%c4Description%&lt;/font&gt;&lt;/div&gt;" id="jf5PPdOuDlF9HIFyWGPY-27">
          <mxCell style="shape=cylinder3;size=15;direction=south;whiteSpace=wrap;html=1;boundedLbl=1;rounded=0;labelBackgroundColor=none;fillColor=#23A2D9;fontSize=12;fontColor=#ffffff;align=center;strokeColor=#0E7DAD;metaEdit=1;points=[[0.5,0,0],[1,0.25,0],[1,0.5,0],[1,0.75,0],[0.5,1,0],[0,0.75,0],[0,0.5,0],[0,0.25,0]];resizable=0;rotation=0;" vertex="1" parent="1">
            <mxGeometry x="520" y="470" width="240" height="120" as="geometry" />
          </mxCell>
        </object>
      </root>
    </mxGraphModel>
  </diagram>
</mxfile>
